<svg xmlns:rdf="http://www.w3.org/1999/02/22-rdf-syntax-ns#" xmlns="http://www.w3.org/2000/svg" version="1.1" xmlns:cc="http://creativecommons.org/ns#" xmlns:dc="http://purl.org/dc/elements/1.1/" viewBox="0 0 1289.9 1277.2">
<g transform="translate(-90.752 55.984)">
<path fill="#fff" d="m839.5 1220.7c-49.968 6.9542-94.503-23.818-142.43-22.374-86.23 34.69-193.92 16.587-257.65-52.604-21.859-36.659-54.603-59.844-96.321-71.162-42.027-23.465-84.441-41.973-107.46-86.693-26.4-36.34-38.07-81.4-44.1-123.79-22.12-27.02-50.54-54.21-68.11-86.55-17.77-40.43-31.131-84.26-32.661-129.46 4.759-39.88 23.591-77.76 37.811-113.47-3.9826-49.329-24.189-100.38-8.0289-150.75 17.653-54.578 47.907-107.73 99.948-136.52 43.725-14.851 54.244-53.745 73-91.221 26.305-41.458 71.241-62.664 105.62-95.572 41.763-29.385 91.294-43.945 141.09-40.592 38.9-23.945 73.848-59.013 121.49-68.976 36.441-6.672 79.388-11.778 113.15-0.23968 33.72 8.0711 65.246 22.697 92.963 43.751 44.985 6.8968 93.138-17.827 137.48 3.1495 59.603 20.977 108.36 67.545 128.18 127.38 23.35 16.053 52.584 17.251 71.484 39.587 35.724 26.361 45.17 71.862 67.515 109.35 17.535 41.324 3.9227 94.936 51.126 118.31 39.372 33.183 63.674 84.389 52.18 136.47 0.3777 46.079-29.935 87.498-25.279 133.05 9.4599 51.395 50.687 105.04 12.358 154.53-17.214 47.875-46.376 91.849-90.413 118.94-21.018 41.242-14.338 99.607-60.705 126.9-48.386 40.974-104.36 75.876-169.76 74.128-48.337 4.0302-65.206 65.017-112.41 77.252-29.722 5.0917-59.825 8.839-90.069 7.1686zm-11.649-33.22c23.398-40.592-45.547 2.6614 0 0zm23.314-1.2101c41.954-10.526-39.519-14.148 0 0zm34.502-2.6297c41.092 2.765-17.117-40.177-9.5409 1.263l9.5409-1.263zm-87.62-2.5562c13.884-35.54-51.564 5.3037 0 0zm-178.69-0.1172c10.486-40.51-43.058 9.982 0 0zm23.262-1.8332c46.367-32.867-45.366-8.368 0 0zm276.73-1.2679c42.272-33.924-46.617-16.877 0 0zm-333.24-2.8428c-5.9496-33.503-47.134 14.12 0 0zm-36.33-4.2989c-4.676-43.703-53.841 13.13 0 0zm123.36 1.9825c39.495-31.315-41.619-5.7876 0 0zm97.718-1.6432c5.3127-26.566-47.622 12.866 0 0zm174.64-3.6597c39.818-18.17-25.061-45.198 0 0zm-203.92-3.5967c5.0264-41.406-44.012 9.0335 0 0zm-32.904-1.2075c21.358-30.196-39.641 0.5658 0 0zm120.28-1.0299c6.4212-34.22-28.465 10.831 0 0zm-23.95-1.0895c9.0917-31.434-24.224-0.3023 0 0zm-288.71-3.7389c45.755-22.148-58.73-21.528 0 0zm130.58-4.9548c30.713-43.996-43.321 4.1388 0 0zm128.23 0.6714c-0.95156-30.084-49 11.193 0 0zm-152.13-5.9777c-14.923-22.707-18.949 18.105 0 0zm298.99 1.1145c-11.7-42.51-35.626 9.5785 0 0zm-236.39-2.4451c-10.362-45.812-48.911 12.32 0 0zm285.93-1.6c33.4-28.845-36.325-13.154 0 0zm-32.073-6.4764c16.877-22.703-38.929-25.405-7.1178 5.516l2.4473-2.3211 4.6705-3.1949zm-444.81-2.3698c12.604-26.001-20.932 11.367 0 0zm328.17 1.259c4.7372-34.042-25.102 9.9197 0 0zm-289.55-5.4529c-6.4714-29.346-18.821 17.793 0 0zm239.95-0.4287c3.2735-18.92-27.956 3.5576 0 0zm-140.75-1.3645c11.618-24.898-57.498-0.4871-6.0661 1.2919l6.0661-1.2919zm331.63-8.3131c21.273-31.868-47.229 1.7326 0 0zm-452.61-1.064c15.633-33.062-36.243 6.4463 0 0zm399.63 1.1946c28.797-25.409-52.786 3.398 0 0zm80.684-0.4789c28.778-33.502-35.046-3.3053 0 0zm-319.89-2.0975c17.278-39.13-49.68 3.9168 0 0zm149.63-5.3813c20.302-25.522-50.448 10.321 0 0zm-32.357-1.5644c0.11226-28.746-34.121 14.519 0 0zm-253.23-2.4002c25.169-28.852-40.356-3.7128 0 0zm75.207-0.2425c-1.9739-39.023-42.966 8.3131 0 0zm273.16-0.8188c-4.4457-34.049-45.371 13.826 0 0zm139.44-4.3786c9.4855-38.538-39.639 5.0792 0 0zm-556.4-0.6802c4.2494-20.03-23.208 7.6373 0 0zm299.44-2.0365c57.191-26.834-36.943-6.5104 0 0zm279.76-0.3c59.162-36.173-47.729-1.4815 0 0zm-102.55-0.6605c8.2038-36.311-45.693 1.0404 0 0zm-284.85-4.6318c17.184-33.974-39.131 13.338 0 0zm146.87 2.593c9.5769-20.916-31.158-6.0291 0 0zm-119.87-1.6411c23.001-29.69-34.023 0.9567 0 0zm150.19-4.4096c-17.572-32.662-10.476 30.397 0 0zm23.667 1.1464c1.5225-20.681-28.898 13.08 0 0zm223.53 1.0844c22.226-36.347-52.124 1.928 0 0zm-594.01-4.2052c-18.954-35.383-31.617 10.443 0 0zm109.51-4.9757c-11.571-24.123-30.72 10.661 0 0zm160.14-1.2575c31.553-26.285-30.744 3.0544 0 0zm-201.97 1.1193c-9.9107-31.424-37.598 9.1555 0 0zm79.591-2.7666c16.217-35.737-35.789 11.777 0 0zm474.19 2.0196c36.76-42.751-44.634-1.6023 0 0zm-655.49-0.3927c12.644-41.088-41.866 1.5109 0 0zm251.04-1.367c47.147-22.164-29.14-25.58 0 0zm212.84-1.405c22.562-41.79-48.182 10.27 0 0zm119.16 0.7788c48.894-38.366-53.456 2.6862 0 0zm-300.03-3.0137c25.733-21.946-30.438-16.122 0 0zm152.78 0c18.561-41.41-34.534-2.921 0 0zm-317.7-4.2509c-2.1934-45.133-21.037 16.083 0 0zm296.81 1.9889c13.75-35.66-33.627-7.5748 0 0zm-51.54-0.7929c7.3707-21.771-44.644 9.75 0 0zm-318.39-1.7102c-5.5797-34.358-38.354 4.7998 0 0zm117.45-5.304c13.101-35.735-41.422 19.333 0 0zm519.23 2.3554c42.46-26.465-42.455-5.7262 0 0zm-290.17-4.3094c-23.502-27.691-21.136 28.877 0 0zm-179.75 6.258c15.705-32.037-44.78 5.2098 0 0zm280.62-7.0078c-8.1226-32.397-13.693 26.083 0-0.0001v0.0001zm-259.2 5.5422c22.914-31.946-29.453 3.5876 0 0zm393.44-6.9122c-16.888-36.628-19.484 32.257 0 0zm-562.11 1.7342c24.2-29.189-41.391-1.6369 0 0zm504.76-0.205c39.104-18.523-23.044-24.151 0 0zm-591.81-2.963c-2.2236-48.627-41.494 12.948 0 0zm349.14-1.6884c-3.6606-44.351-38.592 15.447 0 0zm316.49 0.25c28.06-21.483-29.716-10.059 0 0zm-550-0.75c-5.1986-37.157-19.324 10.8 0 0zm43-1.75c-3.9032-3.6531-3.9032 3.6531 0 0zm322-3.3393c13.03-32.154-39.725 8.6874 0 0zm254.21-1.0044c41.467-32.931-43.579-7.2222-0.0001 0h0.0001zm-764.85-1.4063c0.58019-49.228-41.217 6.1115 0 0zm401.3-14.401c-36.764 1.4245 8.5781 21.622 0-0.0001v0.0001zm-68.243 14.544c12.089-24.975-34.966 0.8661 0 0zm111.23-2.1583c5.8473-42.604-29.428 8.2651 0 0zm-191.19-1.2173c1.4286-42.715-28.825 3.4068 0 0zm214.71-1.7098c11.71-37.299-31.73 0.422 0 0zm87.555-0.058c30.032-23.581-39.958-17.308 0 0zm-246.1-2.9454c35.247-51.997-46.511 20.123 0 0zm-142.29 1.9454c2.8132-23.531-44.715-13.106 0 0zm63.646-2.1145c2.6215-51.214-37.052 20.344 0 0zm39.47-0.024c25.288-27.506-25.295-2.8557 0 0zm411.48-1.4793c6.7711-39.119-40.984 10.631 0 0zm-147.92-1.5068c1.2145-25.326-20.522 8.6453 0 0zm-563.03-1.5928c24.824-36.993-45.006-5.3913 0 0zm153.99-0.4665c-15.263-27.212-41.398 8.9996 0 0zm365.38-0.6532c8.48-26.393-40.876-2.4758 0 0zm133.53-0.3131c38.992-5.3176-8.9041-28.658 0 0zm-416.53-7.4889c5.6959-30.302-26.709 20.418 0 0zm402.78 3.6395c30.333-36.526-15.999-23.897 0 0zm181.39 1.4187c26.205-41.272-40.24-24.038-8.5181-1.5878l5.998 2.378 2.5201-0.7902zm-436.91-2.1477c-8.6708-24.157-44.582 0.3365 0 0zm-340.75-1.521c14.886-52.84-45.611-15.666 0 0zm650.75-7.0155c38.034-36.067-45.155 8.1859 0 0zm-83.906 0.7655c3.9383-27.073-23.523 1.505 0 0zm15.578-1.6543c19.481-39.189-22.204 0.6149 0 0zm-90.166 0.1543c14.208-28.695-30.834 5.5429 0 0zm-558.62-6.6667c-25.627-24.097-23.174 6.2698 0 0zm176.51 0.4119c-7.2915-38.589-38.935 16.574 0 0zm414.16-0.1535c23.761-47.761-30.398-1.5747 0 0zm-552.75-4.4487c30.903-45.186-57.723 8.2423 0 0zm579.36-1.5022c7.8784-27.288-31.641 11.118 0 0zm83.91-1.0651c4.7079-15.25-27.979 4.9055 0 0zm-507.29-1.4075c21.85-41.683-43.593-11.29 0 0zm628.38-0.4224c16.04-34.612-44.822 3.694 0 0zm-606.77-1.5476c31.948 0.7088-23.679-35.445-8.5857 2.1985l8.5857-2.1985zm-203.57-4.4594c5.9728-38.364-35.901 14.453 0 0zm-43 1.4398c-2.4404-23.678-52.097 1.185 0 0zm890.21-0.9243c13.325-56.291-43.144-7.7872 0 0zm-131.94-2.8658c-2.0419-23.165-29.493 6.0405 0 0zm-569.27-4.3122c1.9135-39.406-32.731 13.002 0 0zm491.75-0.2532c25.676-25.41-29.107-2.0238 0 0zm112.48 0.4269c58.474-15.755-29.815-23.273 0 0zm-686.74-3.312c8.2345-31.931-39.251 7.8997 0 0zm668.13 0.7917c18.218-25.218-23.928 0.11843 0 0zm55.438-3.4145c26.823-43.087-32.512 8.3716 0 0zm-103.56-0.8348c16.649-28.202-38.024 15.594 0 0zm-67.431-3.9037c-3.585-17.063-43.856 11.138-2.4957 5.1733l1.5774-3.2699 0.91826-1.9034zm-593.41 3.1733c0.91869-34.26-51.206-9.5235 0 0zm799.79-2.75c2.7436-57.403-42.224 1.1254 0 0zm-700.28-0.4021c11.025-49.504-41.808 2.073 0 0zm-36.925-2.2528c31.846-20.037-33.931-8.9942 0 0zm-159.67-3.4727c5.8351-34.756-39.852-2.8152 0 0zm779.81-0.2534c26.413-26.471-40.686-8.3642 0 0zm-52.217-8.4234c20.317-35.841-33.434 14.393 0 0zm-589.59 0.1615c19.593-25.94-42.795-1.84 0 0zm665.76 0.4763c27.642-22.563-30.609-27.118 0 0zm126.24-1.2547c20.88-46.232-48.609-3.6989 0 0zm-705.21-0.526c11.552-23.658-36.733-9.4385 0 0zm27.215-3.7679c-20.371-46.327-29.295 1.9362 0 0zm-71.301-7.4077c-0.92693-23.571-29.905 16.93 0 0zm648.93-7.0599c-22.534-38.372-4.8451 21.164 0 0zm-58.842 4.0964c16.26-26.396-29.237-7.6326 0 0zm133.63-1.4136c30.343-41.861-47.377 2.6959 0 0zm-920.83 0.6781c21.434-18.09-34.578-26.664-7.6806 1.3219l7.6806-1.3219zm173.2-3.5839c4.4112-39.376-39.696 2.9712 0 0zm-70.928 2.5308c16.255-25.239-36.073-15.126 0 0zm128.37-7.2147c18.953-25.582-52.101 14.328 0 0zm-89.75-0.7618c26.143-37.155-42.3 5.7483 0 0zm722.76 0.9524c19.642-37.052-25.727-6.4704 0 0zm-51.808-4.4974c-0.5778-36.807-33.716 8.798 0 0zm80.128 2.0806c9.7358-38.543-35.787 10.068 0 0zm-868.26-5.3691c7.6912-23.326-23.126-2.4413 0 0zm931.85-5.2962c1.2251-43.493-35.427 22.403 0 0zm-758.88-4.7933c2.4076-28.234-27.115 12.984 0 0zm653.17-2.994c9.004-33.496-18.994 7.0054 0 0zm-744.45 1.2185c-9.4314-34.559-25.044 6.1321 0 0zm18.316-0.9234c47.809-18.585-36.128-23.073 0 0zm-133.69-0.7766c11.969-45.567-47.454-7.4333 0 0zm184.87-2.9783c8.0866-49.382-29.874 19.275 0 0zm654.01-2.2295c-10.761-26.785-23.844 13.402 0 0zm-788-1.1717c27.519-24.681-39.551-4.7819 0 0zm837.8-0.2455c19.253-35.302-33.32-7.1399 0 0zm-866.52-1.489c20.253-26.039-34.282-2.4617 0 0zm142-6.136c28.923-37.74-38.811-9.8284 0 0zm817.52-2.7971c16.78-31.961-42.4 1.8422 0 0zm-903.26-0.7029c12.24-31.127-54.977-20.574 0 0zm20.715-1.2796c15.528-29.291-23.275-4.5475 0 0zm772.52-5.2204c3.7468-33.315-21.092 10.134 0 0zm-742.52-0.8776c6.3439-39.393-34.698 6.2338 0 0zm716.25 1.4118c-0.3037-27.601-27.987 11.747 0 0zm-695.04-13.834c18.975-27.983-36.604 8.9754 0 0zm852.04 3.5746c31.942-33.542-29.455-11.886 0 0zm-112.23-2.0243c25.83-28.525-39.516-17.433 0 0zm-900.56-4.25c-13.705-29.759-21.41 7.3078 0 0zm92.852-2.5c15.508-43.356-28.524 6.8913 0 0zm-67.053-1.757c-6.9908-21.384-25.253-22.959-2.1199 1.1833l2.1199-1.1833zm966.21 0.4545c32.083-38.178-24.267-8.9308 0 0zm-870.53-2.1218c-4.4138-40.852-34.939-11.42 0 0zm-50.635-7.5359c-6.4921-42.638-32.795 16.062 0 0zm801.34 4.1136c10.456-45.629-25.292-17.989 0 0zm-170.48-1.0355c28.493-45.44-16.691-135.45 51.149-155.48 67.621 0.0775-8.0268-34.87-30.879-5.501-54.089-19.467-19.763 78.085-33.383 108.53 1.6794 15.449-17.927 57.582 13.113 52.448zm-659.58-1.26c13.938-36.615-45.822-9.3704 0 0zm994.55-5.3578c26.259-38.458-40.974-1.9521 0 0zm-440.74-4.3475c69.338-23.992-43.287 1.8065-47.822-38.794-8.9924-35.95 50.974-71.346 79.307-31.77 7.9678 17.971-7.411 76.071 20.984 33.1 34.844-54.537-62.114-101.03-96.259-56.5-37.324 39.777-14.57 106.5 43.791 93.964zm385.31-4.518c0.7666-30.499-20.132 21.778 0 0zm-981.48-1.9457c-4.7053-48.747-40.226 25.568 0 0zm918-0.68823c-7.8118-27.623-18.32 14.814 0 0zm-29.538-1.5597c20.546-30.159-23.439 3.1869 0 0zm-803.53 0.49794c0.69716-27.651-57.333-8.9041-2.5 2.1831l2.5-2.1831zm867.5-10c10.354-59.696-22.479 15.099 0 0zm-808.51 2.3001c-4.3281-38.393-36.756 11.343 0 0zm789.87-0.80008c8.3779-46.052-28.328 2.7085 0 0zm85.5-0.18c21.352-17.444-23.156-9.9301 0 0zm35.235-3.1376c26.055-33.33-32.694-16.868 0-0.00003v0.00003zm-79.985-3.1886c5.0142-32.949-24.352 9.1651 0 0zm-665.1-0.48246c-6.502-27.779-92.144-37.165-52.571-92.635 12.528-14.52 107.06-49.175 44.68-46.717-67.762-4.3864-102.56 89.722-47.137 129.04 14.758 9.4431 38.596 17.581 55.028 10.317zm185.1-0.85681c1.2614-47.384 24.65-125.25-42.294-139.55-26.398-1.8695-65.531 40.681-53.64-13.839 13.078-33.58-25.776-56.911-19.323-9.4985-2.6998 54.735-5.438 111.68-5.6847 164.97 39.815-15.87-1.9081-104.09 60.538-113.61 68.388-14.236 32.746 73.221 42.917 109.33 3.9408 5.1926 12.629 7.632 17.488 2.1932zm-383.74 0.74982c39.353-30.215-35.459-21.658 0 0zm-19.896-10.174c-30.32-35.675-15.486 30.233 0 0zm784.73 7.6999c41.87-25.761-1.0735-18.46 0 0zm-892.41-2.904c10.595-52.71-47.786 1.5741 0 0zm1053.2-6.52c24.03-35.139-29.471 0.0608 0 0zm-112.45-5.9265c18.909-29.739-36.104 6.1587 0 0zm89.48 1.4265c16.893-29.755-33.014 2.4726 0 0zm57.75-5.2148c41.18-46.728-35.86-5.1785 0 0zm-77.462-4.1065c22.329-46.859-29.001 10.522 0 0zm-18.282-5.1722c-2.8848-17.307-20.285 17.932 0 0zm-1022.1 3.7435c40.534-31.058-50.743-20.04 0 0zm131.25-1.1653c8.9292-40.618-35.742 8.1641 0 0zm-102.75-9.3886c26.045-61.511-47.616-12.072 0 0zm973.19-0.19606c21.348-24.572-1.3506-17.983-3.4652 1.6451l3.4652-1.6451zm-827.24-2c4.2439-46.992-26.536-12.003-0.85358 1.6686l0.85358-1.6686zm803.36-8.5214c-11.868-24.348-13.287 30.715 0 0zm-863.57-1.7936c22.392-46.946-39.674 3.0033 0 0zm36.735-4.568c-21.895-40.872-9.1516 30.443 0 0zm-171.77 3.7739c33.236-26.542-50.3-13.402 0 0zm1055.4-2.4c18.021-16.231-28.096 4.8681 0 0zm103.2-2.7355c20.449-54.319-35.427 1.45 0 0zm-1123.4-16.89c8.9651-41.798-53.728 19.26 0 0zm36.626 3.7146c27.89-18.759-35.825-20.431-5.0607 2.6065l5.0607-2.6065zm38.118-0.24617c-5.5983-37.006-39.741 17.806 0 0zm935.46-0.71924c17.148-44.537-32.678 21.413 0 0zm25.873-1.8192c7.9558-32.631-21.411 17.07 0 0zm-891.87-3.4391c-15.662-32.282-54.611 5.7401 0 0zm907.97-1.36c30.198-28.461-17.076-27.889 0 0zm-57.585-6.1026c0.059-29.118-22.583 9.3347 0 0zm-1051.4 0.11615c26.671-32.422-25.522-20.824 0 0zm155.11 1.7678c3.4959-25.611-33.221 4.101 0 0zm928.94-9.0824c4.5167-43.702-27.559 12.135 0 0zm-1050.6-3.73c27.233-27.139-32.035-14.653-7.2784 3.5289l7.2784-3.5289zm1153.3 3.3174c-11.209-48.418-32.987 9.9754 0 0zm-1068.8-3.05c-6.5531-41.353-38.432 4.3966 0 0zm-53.01-7.72c-1.8934-66.619-27.764 22.825 0 0zm1069.1 4.6459c8.9762-49.259-22.234-5.629 0 0zm23.818-1.9398c9.4235-39.292-34.21 12.243 0 0zm-1018.9-2.47c17.039-23.565-35.391-18.514 0 0zm922.63-4.7616c1.576-27.246-31.012 13.256 0 0zm-884.68-2.9813c-3.4047-28.431-29.876 5.2757 0 0zm-190.02-4.78c24.493-21.479-31.908-31.872-3.0909 3.4987l3.0909-3.4987zm1109.5 1.564c-11.144-29.308-27.631 3.1256 0 0zm78.893-8.7878c-18.856-42.708-23.378 8.8344 0 0zm-23.631 0.11971c4.0007-26.579-43.723-10.323 0 0zm-1030.4-4.44c7.0879-24.896-47.216 11.626 0 0zm43.013-10.479c-21.211-19.482-21.167 39.012 0 0zm898.02 4.1674c-17.791-15.485-16.403 21.958 0 0zm41.535 1.4266c-5.8304-36.824-19.791 5.4494 0 0zm-1024.9-2.68c8.8039-44.155-31.885 10.178 0 0zm1001.3-1.8422c5.7316-37.158-26.911 2.2208 0 0zm38.419-5.7709c4.3186-34.161-26.388 2.5866 0 0zm-992.57-7.2303c-18.477-38.369-33.28 19.114 0 0zm26.451-0.52933c26.156-25.683-42.978 3.321 0 0zm989.11 1.7936c8.0796-54.104-32.763 13.18 0 0zm-86.972-1.3407c11.227-30.153-23.061 12.292 0 0zm109.8-5.2816c-15.154-50.705-14.962 36.209 0 0zm-1182 2.7753c17.592-59.895-34.97 5.4487 0 0zm110.95-9.5494c-2.0585-32.002-18.338 16.092 0 0zm1005.9 1.0306c-8.4227-30.659-24.292 7.0373 0 0zm-22.786-3c-7.4995-26.916-15.501 9.0149 0 0zm-951.16-11.67c2.4117-33.962-30.626 13.065 0 0zm28.407 0.99599c4.5202-29.345-36.743 11.326 0 0zm1002-3.74c10.044-40.835-32.592 3.6526 0 0zm-98.75-2.886c-9.1605-31.084-31.352-8.0508 0 0zm-1065.6-2.73c3.1493-57.397-47.001 4.955 0 0zm1092.2 1.4471c9.7273-38.23-34.991-1.5064 0 0zm-986.45-3.9009c4.5962-33.334-25.831 21.302 0 0zm-89.548 1.1384c26.207-20.253-23.623-17.823 0 0zm66.12-8.4506c6.7169-40.48-37.047-7.7774 0 0zm-28.823-2.8166c11.696-36.326-40.58 2.2501 0 0zm75.142-5.4098c6.9178-52.24-24.738-0.78265 0 0zm938.89-3.2558c2.754-27.55-17.316 6.8317 0 0zm95.215-2.5092c14.057-36.025-30.473-4.0598 0 0zm-75.583-4.5993c20.948-24.599-29.778 0.29362 0 0zm-1060.2-1.49c2.5373-29.873-29.313 10.867 0 0zm75.172-2.7715c15.539-22.804-25.375 14.854 0 0zm949.99-1.0172c10.398-37.522-15.762 13.355 0 0zm-884.87 0.19671c18.197-36.762-42.319-10.053 0 0zm-165.1-1.5181c22.438-54.991-41.574 3.8216 0 0zm1095.9-12.206c-4.3893-28.975-22.4 1.1428 0 0zm54.884-1.9727c14.671-50.853-19.913-4.0753 0 0zm-1066.3-0.1c8.3511-38.956-36.147 5.1906 0 0zm1085.5-4.36c3.2733-38.574-14.701 15.305 0 0zm-34.172-6.5438c-8.6333-31.585-10.576 30.626 0 0zm-27.233 2.4492c-19.851-48.219-10.389 12.535 0 0zm-1000.3 0.21926c-0.90948-40.469-40.234-16.946 0 0zm965.3-3.42c9.2686-31.567-28.045 8.7578 0 0zm-927.05 2.505c42.503-16.891-34.768-13.128 0 0zm-111.1-6.3791c13.225-65.318-36.036 17.185 0 0zm-24.555-4.3759c5.4228-47.741-31.371 18.869 0 0zm614.79 5.2073c53.877-22.5 36.139-97.222 50.461-143.96 1.5756-62.785-36.385 8.5693-23.043 37.59 16.335 54.986-61.155 132.05-91.314 60.916-9.0687-31.782 13.706-98.082-8.1936-111.64-6.024 43.301-18.097 90.175-9.0826 133.11 18.936 19.756 54.177 28.595 81.171 23.984zm103.74-0.79299c67.34 6.8687 106.88-97.75 30.95-117.66-55.846 1.8237-18.095-56.442-32.538-85.986-35.488 15.645-12.728 86.382-23.448 121.85-7.1772 63.885 26.892 23.177 20.489-14.37 66.507-25.254 61.347 89.588-7.0429 69.705-35.285-32.679-26.122 50.21 11.589 26.47zm-668.41-2.5729c4.9167-39.073-32.398 8.3633 0 0zm1060-4.2726c1.7785-32.231-21.427 6.2312 0 0zm-994.85 0.43121c10.118-33.151-36.173-10.045 0 0zm299.47-0.89777c60.856 12.113 86.351-106.78 27.035-94.418-1.3027-27.979-77.12-64.855-22.633-102.64 27.508-4.4152 73.468-30.448 17.495-31.974-58.863-0.39492-79.302 69.462-45.939 109.44 45.309 11.101 104.1 86.518 25.024 95.316-26.714-7.9553-91.304 24.391-26.982 25.833 8.6999 0.93261 17.448 0.0388 26-1.5554zm755.42-11.751c4.8791-37.683-26.644 20.716 0 0zm-118.48 2.4196c18.07-16.17-24.987-17.219 0 0zm-880.93-5.0487c22.897-41.072-24.107 3.6433 0 0zm924.91-5.9345c18.849-28.01-21.588 9.1656 0 0zm57.551-4.7977c-3.3793-21.054-16.411 17.687 0 0zm-73.555 1.9461c5.7214-39.888 12.297-1.8767 0 0zm-1062.9-2.2015c23.421-41.194-49.138 2.9503 0 0zm109.8 0.76563c21.087-29.464-40.963 1.9367 0 0zm990.16-3.2106c1.7403-42.432-22.074 2.1995 0 0zm-963.02-2.7894c18.483-24.7-25.212-3.313 0 0zm980.35-0.90881c19.753-27.653-25.877-6.6158 0 0zm43.318-8.5986c5.6001-46.878-24.621 12.341 0 0zm-19.013-8.9058c-13.381-24.582-4.7201 26.757 0.033 0.42409l-0.033-0.42409zm-285.6 4.6633c21.86-48.349-96.514-9.856-19.548-8.0769 6.9256 0.59809 12.635 13.946 19.548 8.0769zm225.5-6.5377c10.858-26.028-18.255 17.735 0 0zm-964.11-4.4414c-11.922-38.687-45.896 24.722 0 0zm38.128 1.229c-9.7449-29.296-41.447-3.2762 0 0zm908.19 0.47018c6.4135-33.45-24.462 10.205 0 0zm-1058.4-3.51c19.062-44.025-48.5 2.1524 0 0zm1039.1-5.4611c-9.5972-20.356-13.504 20.77 0 0zm119.84-15c-5.6802-39.371-13.442 38.828 0 0zm-79.867 4c-8.0286-27.744-6.2663 23.036 0 0zm-961-3.5c-3.5059-28.78-29.345 1.7646 0 0zm-27.102-0.85884c4.2458-36.957-37.946 3.4051 0 0zm970.84-1.9592c2.3665-32.794-34.928 4.4787 0 0zm-26.82 1.096c15.57-35.92-35.191 8.0011 0 0zm-1019.6-10.28c13.815-19.602 23.283-25.528-5.2934-12.392-3.2942 2.9726 3.0797 25.115 5.2934 12.392zm1073.5 0.3c2.5469-33.344-18.114 5.8962 0 0zm-1098.4-0.35c25.195-41.271-45.956-1.5819 0 0zm160.23-6.6571c-11.433-25.597-16.606 22.949 0 0zm-85.064-1.7958c7.1176-49.178-38.94 11.481 0 0zm955.27 0.28c29.999-21.104-21.692-7.2262 0 0zm-900.85-4.769c2.9585-44.046-30.999 16.939 0 0zm1037.2 0.78631c-8.2246-47.114-32.649 2.1408 0 0zm-96.076-3.4631c-16.188-23.912-23.446 19.05 0 0zm-968.29-4.6212c-3.9665-48.609-36.01 15.604 0 0zm47-2.452c46.095-16.992-28.878-14.909 0 0zm959.61 0.0622c-7.4025-38.699-24.911-1.0177 0 0zm-87.188-4.7158c0.7717-16.174-16.341 8.3325 0 0zm26.188-0.6145c-9.2739-27.181-16.196 5.4771 0 0zm78.804-5.662c-0.6867-39.987-23.976 14.87 0 0zm-1126.8-0.13c-2.4555-46.676-47.297-1.3513 0 0zm1068.4-2.7046c-16.01-25.865-15.832 13.763 0 0zm81.119-3.2946c24.039-24.589-48.164-23.855 0 0zm-1026-1.68c-6.4175-34.388-43.193 3.7251 0 0zm-67.223-7.5316c28.699-50.806-30.67-11.973 0 0zm112.67 0.29853c-21.45-35.916-33.877 20.329 0 0zm864.14 0.007c-1.8576-21.145-20.548 5.3886 0 0zm42.287-3.5654c3.0782-33.979-29.781 5.4048 0 0zm33.511 1.5102c29.512-20.214-49.173-13.204 0 0zm-101.36-2.6151c-18.59-22.984-30.707 2.204 0 0zm43.5-6.38c-12.109-28.326-14.252 21.338 0 0zm-914.87 1.25c10.368-36.673-42.856-3.0741 0 0zm-99.901-9.3277c-6.7462-30.776-36.202 14.9 0 0zm1093.7 3.6547c18.035-21.387-40.886-8.512 0 0zm-101.7-3.86c-5.8197-27.04-31.603 9.5199 0 0zm59.429 1.4768c26.916-33.658-36.154-21.045 0 0zm-1100.1-3.9334c42.391-7.292-21.141-40.444-7.6994 2.8602l2.1906 0.3898 5.5088-3.25v0.00004zm99.253-0.27305c34.884-40.123-41.46-0.85493 0 0zm85.428 0.5367c10.951-21.028-32.473 2.4744 0 0zm806.6-4.6088c-5.584-35.77-10.861 9.4289 0 0zm131.49-8.6548c6.5586-35.129-31.561-0.98463 0 0zm-995.36-2.0786c13.142-42.439-31.31 15.247 0 0zm35.833 2.1847c24.456-15.985-32.385-16.92-2.5 1.1029l2.5-1.1029zm860.65-10.246c-17.076-16.962-9.6396 25.238 0 0zm-808.18-8.1102c35.881-21.741-41.343-21.902 0 0zm-197.46-1c0.82653-68.613-48.709 24.65 0 0zm1085.5-0.91559c-4.7685-45.78-27.829 17.658 0 0zm-957.85-2.3344c13.708-22.091-28.737 7.5047 0 0zm28.002 0.69282c27.517-37.309-26.585-6.4331-1.0914 1.9432l1.0914-1.9432zm847.79-3.3744c-12.644-27.334-24.975 10.069 0 0zm-26.7-2.43c-8.2237-29.979-18.748 20.668 0 0zm-18.168-10.043c3.5414-23.105-26.637 9.9516 0 0zm-843.6-2.9414c11.309-61.179-37.957 15.699 0 0zm898.17 0.33052c-13.597-31.43-41.052-0.47738 0 0zm-802.86-1.5625c-2.227-49.051-49.432 5.0293 0 0zm862.41-9.937c-11.537-33.79-15.431 31.027 0 0zm-934.88 5.7145c32.461-14.949-35.095-1.104 0 0zm96.511-3.2145c54.803-24.631-18.824-19.975 0 0zm-143.13-9.9716c-6.0668-42.007-31.831 16.722 0 0zm-87.423 4.7216c33.202-6.4966-12.636-40.568-10.782 0.20099l8.507 1.3186 2.2748-1.5196zm1035-1.2682c-0.8894-34.459-25.939 2.7102 0 0zm-22.9-2.2318c0.9859-32.588-32.314 1.068 0 0zm-44.158-5.8343c-20.622-38.171-4.8487 11.942 0 0zm82.52 0.0929c1.1031-35.176-25.545-2.4924 0 0zm-890.16-2.1098c4.8741-74.81-33.6 14.469 0 0zm22.164-2.1548c13.893-23.536-27.639-25.962-6.9856 3.195l6.9856-3.195zm-130.36 1.0977c19.356-32.294-43.106 2.6917 0 0zm934.77-3.5123c8.6171-20.245-17.212 13.066 0 0zm-851.54-9.3294c-30.892-41.597-5.5809 46.541 0 0zm931.21 3.25c-3.8494-37.556-19.095 10.596 0.1521 1.1508l-0.1521-1.1508zm-135.32 1.5549c12.606-18.37-27.687 3.5236 0 0zm-903.82-1.28c30.523-51.613-51.971-9.1999 0 0zm207.87-0.6974c13.458-34.279-35.609 8.2411 0 0zm716.25-5.5878c8.5783-37.592-27.698 5.594 0 0zm-748.9-0.35c28.419-19.75-34.069-11.507 0 0zm-130.69-0.80273c5.8664-32.106-38.334-1.7578 0 0zm930.09-4.67c-15.622-35.159-23.432 10.636 0 0zm-745.7 1.5125c17.506-21.072-31.37-29.04-3.8519 0.96649l3.8519-0.96649zm663.2-3.97c18.413-38.031-34.707 12.542 0 0zm51.485-1.149c4.651-31.676-12.503 15.486 0 0zm-854.1-3.2276c46.263-20.29-44.596-26.008 0 0zm896.16-2.6043c21.387-31.116-33.43-11.031 0 0zm48.467-4.8609c-1.5204-44.842-27.477 12.097 0 0zm-1013.7 0.98646c47.83-24.732-42.252-29.807 0 0zm852.6-1.11c18.877-22.616-17.914-20.366 0 0zm41.25-1.4989c22.088-37.432-40.5 1.4297 0 0zm96.765-1.7511c-10.655-21.838-9.8307 18.249 0.1031 0.66266l-0.1031-0.66266zm-811.83 0.55432c4.3274-52.214-45.947 8.6399 0 0zm-127.64-4.8043c34.575-52.405-47.705 8.643 0 0zm865.47 0.48952c-0.9524-24.238-18.908 1.0529 0 0zm-79.352-9.4909c-6.2338-19.95-9.8848 18.748 0 0zm-605-1.7486c13.599-21.265-34.336-3.1272 0 0zm-206.16 0.82673c38.089-45.645-36.223-16.565 0 0zm169.2-1.2638c17.606-31.097-32.886-7.4298 0 0zm787.1 0.43709c6.9464-23.331-24.683 0.54988 0 0zm-97.043-5.812c14.819-32.435-34.238 10.412 0 0zm117.55-2.138c9.3024-34.973-47.563-9.3752 0 0zm-140.41-3.2011c-0.4966-36.358-37.662 10.709 0 0zm56.99-0.34887c-3.1346-39.663-23.107 14.43 0 0zm-108.96-2.1601c22.485-18.262-39.011 0.0719 0 0zm-634.21-7.28c0.33913-47.186-32.934 24.998 0 0zm73.158 1.7895c-6.8534-35.908-48.392 10.803 0 0zm-39.212-2.358c29.665-43.945-41.572-1.4692 0 0zm-143.04-0.0589c12.169-46.141-60.294 8.4322 0 0zm716.99-1.2008c-14.485-35.597-27.775-2.7205 0 0zm55.427-3.1703c6.4451-22.528-26.906 11.284 0 0zm38.044-1.3701c9.1953-27.487-36.555-1.2265 0 0zm-78.216-3.099c2.3502-30.79-26.289 4.9076 0 0zm-533.56-8.1399c-24.42-39.32-16.723 24.791 0 0zm721.69 4.6748c10.482-14.717-20.056-26.157-6.364 1.1142l6.3635-1.1142h0.0005zm-164.2-4.788c29.189-32.739-37.525-10.092 0 0zm97.106-1.8371c-19.647-43.814-29.317 8.3992 0 0zm-65.776-3.282c5.6987-35.302-31.233 11.893 0 0zm-661.49-1.0036c12.325-43.242-44.901 5.9566 0 0zm-109.53-0.52478c38.896-40.308-60.304-11.608 0 0zm76.762-0.15903c26.528-35.972-49.34-9.2896 0 0zm120.84-0.91623c7.0276-37.981-33.344-7.6518 0 0zm-57.248-4.8357c-6.6135-49.284-34.199 7.7228 0 0zm585.14-10.303c-2.4122-26.002-17.407 28.105 0 0zm72.219 3.8735c-20.158-43.271-15.874 29.314 0 0zm47.61 3.6067c6.5236-43.958-28.38-8.4571 0 0zm-802.09-3.4666c34.481-49.425-71.23-0.94516 0 0zm118.16-3.6332c15.477-38.017-44.668-10.725 0 0zm522.73 3.39c37.544-5.3163-12.33-40.623 0 0zm204.43-1.6349c-3.924-45.622-42.194 6.262 0 0zm-216.89-2.12c18.588-28.779-40.381-6.9848 0 0zm-433.12-3.871c26.727-11.689-16.309-29.444-11.25 3.621l11.25-3.621zm586.68-4.737c26.009-50.582-46.746 12.502 0 0zm-639.01-2.892c19.835-29.132-42.278-4.1353 0 0zm526.03-0.24666c30.881-25.103-37.534-11.575 0 0zm149.7-0.75334c41.64-30.636-48.026-22.828 0 0zm-845.95-5.75c7.0824-50.973-48.232 20.033 0 0zm285.06 3.4029c24.78-28.022-54.366 2.9686 0 0zm502.5-4.3577c23.55-43.616-43.586-4.2093 0 0zm-543.85-3.2952c22.209-36.213-49.789-14.75-1.3076 3.2282l1.3076-3.2282zm-197.27-7.3461c-26.809-51.98-25.217 29.718-0.0299 0.83971l0.0299-0.83971zm18.212 3.0961c43.433-16.193-9.7529-40.742-3.3724 1.498l3.3724-1.498zm560.14-0.75c35.349-31.044-37.573-4.6016 0 0zm-436.25-1.31c47.355-22.225-35.614-10.634 0 0zm122.47-5.6087c9.489-69.248-28.982 26.471 0 0zm-197.92 3.6113c28.019-42.177-58 1.5853 0 0zm27.635-1.4286c6.469-35.618-33.79 13.686 0 0zm690.89-3.0546c9.3298-39.086-49.194 20.981 0 0zm-221.94-0.19536c12.335-39.26-26.783 0.89232 0 0zm96.245-1.2745c-1.3572-26.539-40.124 14.848 0 0zm-417.42-0.22554c7.0526-35.375-32.666 12.367 0 0zm378.22-0.78c-9.3982-29.514-26.891 0.41851 0 0zm-654.66-2.2179c13.478-53.933-48.953-7.4392 0 0zm791.46 0.721c31.23-39.325-36.223-15.173 0 0zm-641.13-0.721c21.195-18.12-35.893-9.562 0 0zm351.8-0.23748c-4.7862-26.509-46.838-5.0471 0 0zm76.411-7.6951c-11.198-38.346-4.8007 28.465 0 0zm-16.878 4.2636c-2.3013-28.917-25.936 8.154 0 0zm-36.547-0.74156c25.758-46.609-35.039 4.5162 0 0zm106.91-6.4591c6.805-27.551-30.378 13.148 0 0zm35.593 0.68566c13.797-31.677-18.956-0.72279 0 0zm103.63 0.46909c20.264-44.802-37.263-0.12973 0 0zm-724.72-3.1961c14.132-29.485-53.97-6.5298-5.75 4.621l5.75-4.621zm279.99 3.0769c29.499-10.031-23.729-19.68 0 0zm-95.263-11.416c-13.535-37.094-16.95 32.888-0.00004 0h0.00004zm463.89 6.3944c1.8724-34.562-30.814 14.651 0 0zm-510.48-1.8753c-16.741-22.918-36.405 2.4639 0 0zm70.663 0.15161c11.352-23.826-34.364-4.9228 0 0zm254.09-4.169c1.5618-25.837-30.678 4.9412 0 0zm-153.75 0.32422c-10.592-39.288-40.076-2.1053 0 0zm96-0.31416c0.9809-42.812-55.061 10.105 0 0zm-246.39-1.2617c29.884-48.344-32.968-5.3245 0 0zm408.71-1.2262c28.537-43.784-45.804 11.298 0 0zm37.052-1.7165c1.0314-33.862-19.714 13.169 0 0zm62.453 1.139c14.492-32.209-34.594 3.6173 0 0zm-339.44 0.42557c16.311-37.2-40.535-14.031 0 0zm-221.62-2.0146c34.919-49.283-46.673 6.4943 0 0zm131.33-1.8573c1.436-45.708-45.177 8.1375 0 0zm112.27-3.4659c6.651-37.238-25.621 12.347 0 0zm69.774 1.7159c29.21-27.691-37.964-16.339 0 0zm-445.48-5.7659c19.277-46.222-54.252 15.202 0 0zm733.96 2.7659c12.117-50.118-37.193 17.498 0 0zm-451.08 1.135c9.6205-31.676-23.315 2.1505 0 0zm272.96 0.8497c4.76-33.909-41.975 10.534 0 0zm-30.082-1.8417c44.616-30.908-41.161 0.16326 0 0zm47.66-2.3312c36.662-35.284-30.398-4.0728 0 0zm83.686 0.6882c8.1088-34.022-46.645 1.0254 0 0zm-148.26-7.5717c20.2-41.045-38.554 7.0976 0 0zm-342.94 2.0697c23.746-33.737-38.4-3.6257 0 0zm448.99 1.9867c23.633-22.122-34.262-11.244 0 0zm95.989-0.30245c8.0706-40.329-45.136-9.9615 0 0zm-405.19-4.4944c33.4-27.169-43.336-12.035 0 0zm179.18-2.2144c4.1434-41.172-34.934 11.203 0 0zm-368.58-3.87c21.058-38.903-33.966-7.5912 0 0zm449.84-7.2747c11.606-38.678-47.07 15.467 0 0zm-292.26-0.19622c11.997-43.732-37.563 5.2738 0 0zm110.59-2.7539c-13.134-39.213-29.43 23.745 0 0zm80.09 0.0345c8.6097-38.44-36.378 18.476 0 0zm70.083 3.9439c23.312-34.927-35.962-2.5308 0 0zm130.12-1.3514c14.444-44.009-36.503 9.6568 0 0zm-645.8-1.1757c37.384-50.191-55.96-0.10155 0 0zm330.18 0.77752c32.783-34.838-35.511-11.264 0 0zm-20.924-3.6705c14.423-42.995-32.995 1.7261 0 0zm396.59 1.7887c14.176-35.421-53.473-8.6648 0 0zm-322.66-1.4705c47.525 6.6455-16.161-27.481-6.4037 2l6.4037-2zm211.41-0.21c7.2208-49.089-45.65 12.328 0 0zm-439.85-7.54c8.7648-40.891-46.352 7.3655 0 0zm126.1-0.46663c30.02-37.789-42.127 2.266 0 0zm382.29-2.6198c20.642-34.186-25.205 1.2579 0 0zm-231.62-6.4407c37.328-36.89-52.423 9.002 0 0zm-353.79 1.0957c-2.3021-35.965-34.651 13.011 0 0zm462.07-1.3637c10.371-43.553-41.713 7.5545 0 0zm-137.45-1.955c-9.618-39.167-28.173 0.21472 0 0zm282-0.5c38.365-15.01-39.95-40.652 0 0zm-584-4.4349c-1.9977-33.971-25.695 11.355 0 0zm163.25-2.7347c3.5882-42.195-39.766 16.094 0 0zm110.75 4.1242c-20.448-35.837-27.47 12.007 0 0zm276.8-1.7046c23.822-25.902-28.234-12.679 0 0zm-628.07-0.25c39.019-1.6137-11.168-23.158-2.8416 1.8054l2.8416-1.8054zm557.38-0.64262c23.802-20.538-51.713-17.507-6.6103 2.55l6.6103-2.55zm-233.48-2.3574c8.6421-29.764-35.86 13.052 0 0zm-205.95-3.6368c26.735-36.923-51.188 11.224 0 0zm-79.26-2.371c33.522-50.847-50.017 3.9761 0 0zm354.08-1.7368c37.083-18.749-33.102-16.751 0 0zm-87.152-6.5132c14.619-26.289-46.901-1.0088-5.2791 4.2527l5.2791-4.2527zm54.087 0.34893c43.306-32.393-53.149-4.8979 0 0zm290.86-4.527c0.813-46.366-51.513 15.016 0 0zm-117.12-0.69952c40.359-42.3-39.059-25.403 0 0zm-454.63-8.4536c-23.738-44.226-31.055 39.058 0 0zm65.027 6.4211c8.9516-45.834-48.896-3.1249 0 0zm370.61 1.9107c10.586-42.874-53.175-13.167-5.1798 1.175l5.1798-1.175zm51.156-3.5c-1.7172-60.338-34.391 15.501 0 0zm-349.93 2.0544c28.183-32.541-59.772-16.155-4.279 0.64316l4.279-0.64316zm-114.36-3.8044c46.874-27.799-45.101-13.791 0 0zm178.99-7.3295c3.6472-31.281-60.026 17.642-4.8578 5.2468l4.8578-5.2468zm135.65 5.0573c22.085-31.755-45.884-6.3457 0 0zm-237.94-5.2278c4.6476-56.857-54.37 13.041 0 0zm443.14-0.39141c27.891-27.738-29.544-28.541 0 0zm-377.67-5.6086c2.4225-70.652-43.587 17.765 0 0zm119.97-2.1544c15.493-55.001-40.568 15.878 0 0zm118.57-6.4195c21.82-46.954-56.047-8.326 0 0zm112.78-0.80335c32.768-29.704-42.127-12.849 0 0zm-394.68-4.6414c20.177-37.313-53.304-2.8774 0 0zm314.72-2.0037c5.0066-51.053-49.041 11.193 0 0zm59.576 2.7724c13.505-57.539-54.602 6.4252 0 0zm-43.256-0.12818c57.284-37.192-41.787-22.29 0 0zm-263.18-0.72447c21.707-23.77-48.408-27.428-9.074 1.0259l9.074-1.0259zm159.33-1.4629c-10.956-37.07-59.335 9.7737 0 0zm16.55 0.63684c32.053-17.66-36.074-33.763-2.0619 0.9287l2.0619-0.9287zm-219.32-16.086c24.347-39.414-42.085-11.859-5.3093 4.3355l5.3093-4.3355zm153.6 1.8886c2.1155-50.532-28.101 21.269 0 0zm-23.314-2.497c22.361-35.307-40.634-5.903 0 0zm69.641-8.1282c-0.4687-34.567-47.617 12.888 0 0zm-171.17-5.7829c41.019-9.6569-35.368-44.4-10.711 1.5289l10.711-1.5289zm140.84-5.9484c11.587-30.983-47.467-6.1141-5.75 6.4718l5.75-6.4718zm-107.57-6.0197c49.211-37.239-61.807-13.916 0 0zm73.012-0.0613c25.38-43.204-55.656 9.4552 0 0.00005v-0.00005zm-30.76-3.1887c28.888-33.036-60.699-23.171 0 0z"/>
</g>
</svg>
